# xmcd
#
# Track frame offsets:
#	150
#	21126
#	47239
#	75344
#	107761
#	131273
#	146192
#	170727
#	190193
#	216710
#	241072
#	261116
#	287380
#	303112
#	327159
#	339796
#
# Disc length: 4754 seconds
#
# Revision: 1
# Processed by: cddbd v1.5.2PL0 Copyright (c) Steve Scherf et al.
# Submitted via: audiograbber 1.83.01
#
DISCID=dd129010
DTITLE=Diverse - Mellomania Step 09 CD1
DYEAR=2007
DGENRE=Trance
TTITLE0=Epos - Adagio Espressivo (Singular's Theme from Mellomania Intro Mix)
TTITLE1=Roger Sanchez - Lost (Roger's 12 Inch Mix)
TTITLE2=Cold Blue and Del Mar - 11 Days
TTITLE3=Skye Shapard ft. Mque - Closer (Endless Hope Remix)
TTITLE4=Woody van Eden ft. Jimmy H. - Y68
TTITLE5=Kenidel Lopez - Heaven's Caliber (Thomas Datt Mix)
TTITLE6=Sound Fiction ft. Kate Cameron - Alive (Mike Shiver's Catching Sun Mix)
TTITLE7=Earthscape - Deep Forest
TTITLE8=Sabtoz - Dragon
TTITLE9=Galen Behr vs. Hydroid - Carabella (Galen Behr vs. Orjan Nilson Remix)
TTITLE10=Greg Downey - Vivid Intent
TTITLE11=Mr. Sam ft. Kirsty Hawkshaw - Split (Aly and Fila Album Remix)
TTITLE12=Chris Chambers and Static Blue - Dynamica
TTITLE13=Krivi pres. Adriatic - Hope Remains
TTITLE14=Buro - Impressions
TTITLE15=Tiesto - Lethal Industry (Richard Duran Remix)
EXTD=
EXTT0=
EXTT1=
EXTT2=
EXTT3=
EXTT4=
EXTT5=
EXTT6=
EXTT7=
EXTT8=
EXTT9=
EXTT10=
EXTT11=
EXTT12=
EXTT13=
EXTT14=
EXTT15=
PLAYORDER=
